<svg width="38" height="37" viewBox="0 0 38 37" fill="none" xmlns="http://www.w3.org/2000/svg">
<path fill-rule="evenodd" clip-rule="evenodd" d="M18.9035 36.846C29.0782 36.846 37.3265 28.5977 37.3265 18.423C37.3265 8.24825 29.0782 0 18.9035 0C8.72872 0 0.480469 8.24825 0.480469 18.423C0.480469 28.5977 8.72872 36.846 18.9035 36.846ZM9.69189 14.329C9.69189 11.5073 11.9876 9.21155 14.8094 9.21155H22.9974C25.8192 9.21155 28.1149 11.5073 28.1149 14.329V22.517C28.1149 25.3388 25.8192 27.6345 22.9974 27.6345H14.8094C11.9876 27.6345 9.69189 25.3388 9.69189 22.517V14.329ZM22.9974 11.2585H14.8094C13.1165 11.2585 11.7389 12.6362 11.7389 14.329V22.517C11.7389 24.2099 13.1165 25.5875 14.8094 25.5875H22.9974C24.6903 25.5875 26.0679 24.2099 26.0679 22.517V14.329C26.0679 12.6362 24.6903 11.2585 22.9974 11.2585ZM23.2972 12.5818C23.4891 12.3899 23.7494 12.282 24.0209 12.282C24.2923 12.282 24.5527 12.3899 24.7446 12.5818C24.9366 12.7738 25.0444 13.0341 25.0444 13.3055C25.0444 13.577 24.9366 13.8373 24.7446 14.0293C24.5527 14.2212 24.2923 14.329 24.0209 14.329C23.7494 14.329 23.4891 14.2212 23.2972 14.0293C23.1052 13.8373 22.9974 13.577 22.9974 13.3055C22.9974 13.0341 23.1052 12.7738 23.2972 12.5818ZM13.7859 18.423C13.7859 15.6013 16.0816 13.3055 18.9034 13.3055C21.7252 13.3055 24.0209 15.6013 24.0209 18.423C24.0209 21.2448 21.7252 23.5405 18.9034 23.5405C16.0816 23.5405 13.7859 21.2448 13.7859 18.423ZM21.9739 18.423C21.9739 16.7302 20.5963 15.3525 18.9034 15.3525C17.2105 15.3525 15.8329 16.7302 15.8329 18.423C15.8329 20.1159 17.2105 21.4935 18.9034 21.4935C20.5963 21.4935 21.9739 20.1159 21.9739 18.423Z" fill="#12448D"/>
</svg>
