<svg width="26" height="26" viewBox="0 0 26 26" fill="none" xmlns="http://www.w3.org/2000/svg">
<path d="M13.0563 24.189C19.2588 24.0341 24.1613 18.8803 24.0064 12.6778C23.8514 6.47526 18.6976 1.57275 12.4951 1.72771C6.2926 1.88268 1.39009 7.03643 1.54505 13.239C1.70001 19.4415 6.85377 24.344 13.0563 24.189Z" fill="white"/>
<path d="M12.776 24.1922C18.9804 24.1922 24.01 19.1625 24.01 12.9581C24.01 6.75376 18.9804 1.72412 12.776 1.72412C6.5716 1.72412 1.54196 6.75376 1.54196 12.9581C1.54196 19.1625 6.5716 24.1922 12.776 24.1922Z" fill="#12448D"/>
<path d="M5.57401 20.3084C5.68415 19.978 5.79429 19.5375 5.90442 19.2071C6.1247 18.4361 6.34497 17.6651 6.56525 17.0043C6.56525 16.8942 6.56525 16.8942 6.56525 16.784C6.01456 15.9029 5.68415 14.9117 5.57401 13.9205C5.35374 12.3785 5.68415 10.8366 6.45511 9.40482C7.55648 7.53248 9.20855 6.32097 11.3012 5.88042C13.1735 5.43987 14.9357 5.77029 16.5878 6.76152C18.4601 7.97303 19.6716 9.6251 20.002 11.8278C20.6628 15.5725 18.35 19.0969 14.6053 20.0882C12.7329 20.6388 10.8606 20.3084 9.09841 19.3172C8.98827 19.2071 8.87813 19.2071 8.768 19.3172C7.77676 19.6476 6.67538 19.8679 5.68415 20.1983C5.68415 20.1983 5.68415 20.3084 5.57401 20.3084ZM6.67538 19.2071C6.78552 19.2071 6.78552 19.2071 6.78552 19.2071C7.55648 18.9868 8.21731 18.7665 8.98827 18.5462C9.09841 18.5462 9.20855 18.5462 9.31868 18.5462C10.3099 19.2071 11.5214 19.5375 12.7329 19.5375C13.7242 19.5375 14.6053 19.3172 15.4864 18.9868C18.2398 17.7753 19.7817 14.8016 19.2311 11.938C18.7905 9.73523 17.579 8.19331 15.5965 7.20207C14.385 6.54125 12.9532 6.43111 11.6316 6.65139C10.4201 6.87166 9.31868 7.42235 8.32745 8.30345C6.78552 9.73523 6.01456 11.6076 6.23483 13.7002C6.34497 14.8016 6.67538 15.7928 7.22607 16.6739C7.22607 16.784 7.22607 16.784 7.22607 16.8942C7.0058 17.6651 6.78552 18.326 6.56525 19.0969C6.78552 19.0969 6.78552 19.0969 6.67538 19.2071Z" fill="white"/>
<path d="M9.20859 11.1669C9.20859 10.6162 9.31872 10.1756 9.64914 9.84523C9.75927 9.73509 9.86941 9.62495 9.97955 9.51482C10.1998 9.29454 10.6404 9.29454 10.8606 9.51482C11.3012 9.84523 11.6316 10.2858 12.0722 10.7263C12.2924 10.9466 12.2924 11.277 12.0722 11.4973C11.962 11.7176 11.7417 11.8277 11.6316 11.9378C11.5215 12.048 11.5215 12.1581 11.5215 12.2683C12.0722 13.4798 12.9533 14.2507 14.0546 14.8014C14.2749 14.9116 14.2749 14.9116 14.4952 14.6913C14.6053 14.5811 14.8256 14.3609 14.9357 14.2507C15.156 14.0305 15.4864 14.0305 15.7067 14.2507C16.0371 14.5811 16.4777 15.0217 16.8081 15.3521C17.1385 15.6825 17.0283 16.0129 16.8081 16.3433C16.4777 16.6737 16.0371 17.0042 15.5966 17.0042C15.2661 17.0042 14.9357 17.0042 14.4952 16.894C13.6141 16.6737 12.8431 16.2332 12.0722 15.5724C11.0809 14.6913 10.1998 13.8102 9.64914 12.5987C9.31872 12.1581 9.20859 11.6074 9.20859 11.1669Z" fill="white"/>
</svg>
