<svg width="26" height="26" viewBox="0 0 26 26" fill="none" xmlns="http://www.w3.org/2000/svg">
<g clip-path="url(#clip0_465_828)">
<path d="M13.0561 24.1431C19.2586 23.9882 24.1611 18.8344 24.0061 12.6319C23.8512 6.42936 18.6974 1.52685 12.4949 1.68182C6.29239 1.83678 1.38987 6.99054 1.54484 13.1931C1.6998 19.3956 6.85356 24.2981 13.0561 24.1431Z" fill="white"/>
<path d="M12.7756 24.1458C18.98 24.1458 24.0096 19.1161 24.0096 12.9118C24.0096 6.70738 18.98 1.67773 12.7756 1.67773C6.57124 1.67773 1.5416 6.70738 1.5416 12.9118C1.5416 19.1161 6.57124 24.1458 12.7756 24.1458Z" fill="#12448D"/>
<path d="M12.7757 12.2508C10.4628 12.2508 8.59045 10.3785 8.59045 8.06559C8.59045 5.75271 10.4628 3.88037 12.7757 3.88037C15.0886 3.88037 16.9609 5.75271 16.9609 8.06559C16.9609 10.3785 15.0886 12.2508 12.7757 12.2508ZM13.8771 4.65133C13.9872 4.76147 13.9872 4.65133 14.0973 4.76147C14.0973 4.76147 14.2075 4.76147 14.2075 4.65133V4.5412C14.2075 4.5412 14.2075 4.5412 14.2075 4.43106C14.2075 4.32092 14.2075 4.32092 14.0973 4.32092C13.9872 4.32092 13.8771 4.32092 13.8771 4.21078C13.8771 4.21078 13.8771 4.10065 13.7669 4.21078C13.7669 4.21078 13.7669 4.32092 13.8771 4.32092C13.9872 4.43106 13.9872 4.43106 14.0973 4.5412V4.65133C13.9872 4.65133 13.9872 4.65133 13.8771 4.65133C13.8771 4.5412 13.7669 4.5412 13.7669 4.5412C13.7669 4.5412 13.7669 4.5412 13.6568 4.5412C13.5466 4.5412 13.5466 4.43106 13.5466 4.32092L13.4365 4.21078C13.4365 4.10065 13.5466 4.21078 13.5466 4.10065C13.4365 4.10065 13.3264 4.10065 13.2162 3.99051C12.996 3.99051 12.8858 3.99051 12.6655 4.10065C12.4453 4.21078 12.3351 4.32092 12.225 4.5412C12.225 4.65133 12.225 4.65133 12.1149 4.5412C12.0047 4.5412 12.0047 4.32092 12.0047 4.32092C12.1149 4.21078 12.1149 4.10065 12.225 4.10065C12.225 4.10065 12.225 4.10065 12.225 3.99051C12.225 3.99051 12.225 3.99051 12.1149 3.99051C12.0047 3.99051 11.8946 3.99051 11.7844 4.10065C11.7844 4.21078 11.7844 4.21078 11.6743 4.32092V4.43106C11.6743 4.5412 11.5642 4.5412 11.5642 4.5412C11.454 4.5412 11.454 4.5412 11.454 4.5412C11.454 4.65133 11.454 4.65133 11.3439 4.65133C11.2338 4.65133 11.2338 4.76147 11.1236 4.65133H11.0135C11.1236 4.65133 11.2338 4.5412 11.2338 4.5412L11.3439 4.43106H11.2338H11.1236C11.0135 4.43106 11.0135 4.43106 11.0135 4.5412C11.0135 4.5412 11.0135 4.65133 10.9033 4.65133C10.9033 4.65133 10.7932 4.65133 10.6831 4.76147C10.5729 4.76147 10.5729 4.87161 10.4628 4.98175V5.09188C10.5729 5.09188 10.5729 5.20202 10.4628 5.31216C10.4628 5.31216 10.4628 5.31216 10.4628 5.4223C10.4628 5.31216 10.5729 5.31216 10.5729 5.20202C10.6831 5.20202 10.7932 5.09188 10.6831 4.98175C10.7932 4.98175 10.7932 4.87161 10.9033 4.87161C11.0135 4.87161 11.0135 4.87161 11.1236 4.87161C11.2338 4.98175 11.1236 4.98175 11.1236 4.98175C11.1236 4.98175 11.2338 4.98175 11.2338 4.87161C11.1236 4.98175 11.2338 5.09188 11.3439 5.20202C11.3439 5.31216 11.3439 5.31216 11.3439 5.31216C11.2338 5.31216 11.1236 5.4223 11.0135 5.4223C10.9033 5.4223 10.9033 5.4223 10.9033 5.53243C10.9033 5.53243 10.9033 5.53243 10.9033 5.64257H11.0135C11.0135 5.64257 11.0135 5.64257 11.1236 5.64257C11.0135 5.64257 11.0135 5.64257 10.9033 5.75271C10.9033 5.75271 10.7932 5.86284 10.7932 5.75271C10.6831 5.75271 10.5729 5.86285 10.5729 5.97298C10.5729 5.97298 10.5729 5.97298 10.4628 5.97298C10.3527 5.97298 10.2425 5.97298 10.2425 6.08312C10.2425 6.3034 10.1324 6.52367 9.9121 6.52367C9.80197 6.52367 9.80197 6.63381 9.80197 6.74394C9.80197 6.85408 9.80197 6.85408 9.80197 6.96422C9.80197 7.07436 9.80197 7.07436 9.69183 7.07436C9.69183 6.96422 9.58169 6.96422 9.69183 6.85408C9.69183 6.74394 9.69183 6.74394 9.58169 6.74394C9.47155 6.74394 9.36142 6.74394 9.25128 6.85408C9.14114 6.85408 9.14114 6.96422 9.14114 7.07436C9.031 7.18449 9.14114 7.29463 9.14114 7.40477C9.14114 7.51491 9.14114 7.51491 9.25128 7.51491C9.36142 7.51491 9.36142 7.40477 9.36142 7.40477C9.36142 7.40477 9.36142 7.29463 9.47155 7.29463C9.47155 7.29463 9.47155 7.29463 9.58169 7.40477C9.58169 7.51491 9.58169 7.51491 9.58169 7.62504C9.58169 7.62504 9.58169 7.62504 9.58169 7.73518C9.58169 7.73518 9.58169 7.73518 9.69183 7.73518C9.80197 7.73518 9.9121 7.73518 9.80197 7.95546C9.80197 8.06559 9.80197 8.06559 9.80197 8.17573C9.80197 8.28587 9.9121 8.28587 9.9121 8.28587C10.0222 8.28587 10.0222 8.28587 10.1324 8.28587C9.9121 8.28587 9.9121 8.28587 10.0222 8.39601C10.1324 8.39601 10.2425 8.50614 10.3527 8.39601C10.3527 8.39601 10.3527 8.39601 10.4628 8.39601C10.5729 8.50614 10.6831 8.50614 10.6831 8.61628C10.7932 8.72642 10.7932 8.72642 10.9033 8.72642C11.0135 8.72642 11.1236 8.83656 11.2338 8.94669V9.05683C11.3439 9.05683 11.454 9.27711 11.6743 9.27711C11.7844 9.27711 11.8946 9.27711 12.0047 9.38724L12.1149 9.49738C12.225 9.49738 12.3351 9.60752 12.225 9.71766C12.1149 9.71766 12.1149 9.82779 12.1149 9.82779C12.1149 9.93793 12.0047 9.93793 12.1149 10.0481C12.225 10.1582 12.1149 10.2683 12.0047 10.4886C12.0047 10.5988 11.8946 10.5988 11.8946 10.5988C11.7844 10.5988 11.7844 10.7089 11.7844 10.819C11.7844 10.9292 11.6743 11.0393 11.6743 11.1494C11.5642 11.1494 11.5642 11.1494 11.6743 11.2596V11.3697C11.5642 11.3697 11.5642 11.3697 11.5642 11.4799C11.5642 11.59 11.5642 11.59 11.5642 11.7001C11.5642 11.8103 11.6743 11.9204 11.6743 11.9204C11.6743 11.9204 11.7844 11.9204 11.7844 12.0305C11.6743 12.0305 11.6743 11.9204 11.5642 11.9204C11.3439 11.8103 11.2338 11.7001 11.1236 11.59C10.7932 11.2596 10.7932 11.1494 10.6831 11.0393C10.5729 10.7089 10.4628 10.4886 10.3527 10.2683C10.3527 10.1582 10.2425 10.1582 10.2425 10.1582C10.1324 10.0481 10.0222 10.0481 9.9121 9.93793C9.80197 9.71766 9.69183 9.60752 9.58169 9.49738C9.58169 9.49738 9.58169 9.49738 9.58169 9.38724C9.58169 9.27711 9.58169 9.27711 9.58169 9.16697C9.58169 9.05683 9.58169 9.05683 9.58169 8.94669V8.83656C9.58169 8.61628 9.58169 8.39601 9.80197 8.28587V8.17573H9.69183C9.58169 8.28587 9.47155 8.17573 9.47155 8.17573C9.47155 8.06559 9.36142 7.95546 9.25128 7.95546C9.14114 7.84532 9.14114 7.73518 9.031 7.73518C8.92087 7.73518 8.92087 7.62504 8.92087 7.51491V7.40477C9.031 7.29463 8.92087 7.18449 8.92087 7.07436C8.48032 8.50614 9.031 10.5988 10.7932 11.59C12.3351 12.4711 14.5379 12.361 15.9697 10.5988C16.4102 10.0481 16.7406 9.38724 16.8508 8.72642C16.9609 8.06559 16.9609 7.29463 16.6305 6.63381C16.6305 6.74394 16.6305 6.96422 16.5204 7.07436C16.5204 6.96422 16.4102 6.85408 16.3001 6.74394C16.1899 6.63381 16.0798 6.52367 16.0798 6.30339C16.0798 6.19326 15.9697 6.19326 15.8595 6.19326C15.8595 6.30339 15.8595 6.30339 15.9697 6.30339C16.0798 6.41353 16.1899 6.63381 16.3001 6.74394C16.4102 6.85408 16.4102 6.96422 16.5204 7.07436C16.5204 7.18449 16.6305 7.18449 16.6305 7.29463C16.6305 7.29463 16.6305 7.29463 16.7406 7.29463C16.7406 7.29463 16.7406 7.18449 16.8508 7.29463C16.8508 7.29463 16.8508 7.29463 16.8508 7.40477C16.8508 7.62504 16.8508 7.73518 16.8508 7.95546C16.8508 8.06559 16.8508 8.06559 16.7406 8.17573C16.6305 8.39601 16.6305 8.50614 16.6305 8.72642C16.6305 8.83656 16.6305 9.05683 16.6305 9.16697V9.27711C16.5204 9.38724 16.3001 9.49738 16.3001 9.71766C16.3001 9.82779 16.1899 9.93793 16.0798 10.0481C15.8595 10.2683 15.7494 10.3785 15.419 10.4886H15.3088C15.3088 10.3785 15.3088 10.2683 15.3088 10.1582C15.3088 10.0481 15.3088 9.93793 15.3088 9.82779C15.3088 9.71766 15.3088 9.60752 15.1987 9.49738V9.38724C15.1987 9.27711 15.3088 9.16697 15.3088 9.05683C15.3088 8.94669 15.3088 8.83656 15.3088 8.83656C15.1987 8.72642 15.1987 8.61628 15.1987 8.50614C15.1987 8.39601 15.0886 8.28587 15.1987 8.28587C15.1987 8.17573 15.1987 8.06559 15.1987 8.06559C14.648 7.84532 14.4277 7.73518 14.3176 7.84532H14.2075C14.0973 7.84532 14.0973 7.84532 13.9872 7.84532H13.8771C13.8771 7.84532 13.8771 7.84532 13.7669 7.84532C13.6568 7.84532 13.5466 7.73518 13.5466 7.62504C13.5466 7.51491 13.5466 7.51491 13.4365 7.40477C13.3264 7.40477 13.3264 7.29463 13.3264 7.18449C13.2162 7.07436 13.2162 6.96422 13.3264 6.85408C13.3264 6.85408 13.3264 6.85408 13.3264 6.74394C13.2162 6.63381 13.2162 6.52367 13.3264 6.52367C13.3264 6.52367 13.3264 6.52367 13.3264 6.41353C13.4365 6.30339 13.4365 6.19326 13.5466 6.08312C13.5466 6.08312 13.5466 6.08312 13.5466 5.97298C13.5466 5.86285 13.5466 5.75271 13.6568 5.64257C13.6568 5.64257 13.6568 5.64257 13.7669 5.64257C13.8771 5.64257 13.8771 5.64257 13.9872 5.64257C14.0973 5.64257 14.0973 5.64257 14.2075 5.53243C14.3176 5.53243 14.4277 5.53243 14.5379 5.53243C14.648 5.53243 14.648 5.53243 14.7582 5.64257C14.7582 5.75271 14.7582 5.75271 14.8683 5.75271C14.9784 5.75271 15.0886 5.86284 15.1987 5.86284C15.3088 5.86284 15.3088 5.86284 15.3088 5.86284C15.3088 5.75271 15.3088 5.75271 15.419 5.75271C15.5291 5.75271 15.6393 5.86284 15.8595 5.86284C15.9697 5.86284 15.9697 5.86284 15.8595 5.75271C15.8595 5.75271 15.8595 5.64257 15.7494 5.64257C15.7494 5.64257 15.6393 5.53243 15.6393 5.64257C15.5291 5.64257 15.419 5.64257 15.3088 5.53243L15.1987 5.4223C15.1987 5.4223 15.1987 5.4223 15.0886 5.4223C15.0886 5.4223 15.0886 5.4223 15.0886 5.53243V5.64257C14.9784 5.53243 14.8683 5.4223 14.8683 5.4223C14.7582 5.31216 14.648 5.31216 14.5379 5.20202C14.648 5.20202 14.648 5.31216 14.7582 5.31216L14.8683 5.4223C14.8683 5.4223 14.8683 5.31216 14.7582 5.31216C14.648 5.31216 14.5379 5.20202 14.4277 5.09188C14.4277 5.09188 14.3176 4.98175 14.3176 5.09188C14.2075 5.20202 14.0973 5.20202 14.0973 5.20202L13.9872 5.31216C13.9872 5.4223 13.9872 5.4223 13.8771 5.4223H13.7669C13.6568 5.53243 13.5466 5.4223 13.5466 5.31216C13.5466 5.20202 13.5466 5.20202 13.5466 5.09188C13.5466 4.98175 13.5466 4.98175 13.6568 4.98175C13.6568 4.98175 13.6568 4.98175 13.7669 4.98175C13.8771 4.98175 13.8771 4.98175 13.9872 4.87161C13.9872 4.76147 13.9872 4.76147 13.8771 4.76147C13.8771 4.76147 13.9872 4.76147 13.9872 4.65133C13.7669 4.87161 13.8771 4.76147 13.8771 4.65133ZM16.6305 6.63381C16.6305 6.52367 16.5204 6.41353 16.5204 6.30339C16.5204 6.30339 16.5204 6.30339 16.4102 6.30339V6.41353C16.5204 6.41353 16.5204 6.52367 16.6305 6.63381Z" fill="white"/>
<path d="M10.573 13.3522C10.6832 13.6826 10.7933 14.013 10.9034 14.2333C10.9034 14.3434 10.9034 14.3434 10.7933 14.3434C10.573 14.5637 10.3528 14.7839 10.1325 14.8941C9.91221 15.1144 9.69194 15.2245 9.5818 15.4448C9.25139 15.7752 9.25139 16.1056 9.36152 16.436C9.5818 17.3171 9.5818 18.1982 9.47166 18.9692C9.47166 19.1894 9.36152 19.2996 9.36152 19.5199C9.36152 19.63 9.36152 19.63 9.25139 19.63C9.03111 19.63 8.81084 19.63 8.59056 19.63C8.48042 19.63 8.48042 19.63 8.48042 19.5199C8.59056 19.0793 8.59056 18.6388 8.59056 18.1982C8.59056 17.8678 8.59056 17.6475 8.59056 17.3171C8.59056 17.207 8.48042 17.0968 8.48042 16.9867C8.37029 16.8766 8.26015 16.8766 8.03987 16.9867C7.8196 17.207 7.70946 17.4272 7.59932 17.6475C7.26891 18.1982 7.04864 18.6388 6.82836 19.1894C6.71823 19.2996 6.71823 19.5199 6.60809 19.63C6.60809 19.63 6.60809 19.7401 6.49795 19.7401C6.16754 19.7401 5.83713 19.7401 5.39658 19.7401V19.63C5.94726 18.6388 6.49795 17.7577 7.04864 16.7664C7.15878 16.5461 7.26891 16.2157 7.37905 15.9955C7.48919 15.665 7.48919 15.3346 7.48919 15.0042C7.37905 14.5637 7.26891 14.1231 7.15878 13.7927C7.04864 13.242 7.04864 12.6913 7.15878 12.2508C7.37905 11.59 7.70946 11.1494 8.03987 10.7089C8.26015 10.4886 8.48042 10.1582 8.81084 9.82776C8.92097 9.71762 8.92097 9.82776 8.92097 9.82776C9.03111 10.048 9.14125 10.2683 9.25139 10.3784C9.25139 10.4886 9.25139 10.4886 9.25139 10.4886C9.03111 10.7089 8.81084 10.9291 8.7007 11.1494C8.37029 11.8102 8.03987 12.4711 8.03987 13.1319C8.03987 13.3522 8.03987 13.4623 8.15001 13.6826C8.37029 14.2333 8.81084 14.4535 9.36152 14.2333C9.80207 14.1231 10.0223 13.9028 10.3528 13.5724C10.4629 13.5724 10.4629 13.4623 10.573 13.3522Z" fill="white"/>
<path d="M14.9785 13.3524C15.0887 13.4625 15.3089 13.5726 15.4191 13.7929C15.6393 14.0132 15.9698 14.2335 16.3002 14.3436C16.6306 14.4537 16.961 14.4537 17.1813 14.1233C17.2914 14.0132 17.4015 13.7929 17.4015 13.5726C17.5117 13.2422 17.4015 12.9118 17.4015 12.5814C17.4015 12.3611 17.2914 12.1409 17.2914 12.0307C17.1813 11.7003 17.0711 11.48 16.8509 11.1496C16.7407 10.9293 16.5204 10.7091 16.4103 10.5989V10.4888C16.5204 10.2685 16.6306 10.0482 16.7407 9.93811C16.7407 9.93811 16.7407 9.82797 16.8509 9.93811C17.2914 10.3787 17.732 10.9293 18.0624 11.48C18.3928 12.1409 18.5029 12.8017 18.3928 13.5726C18.2826 13.9031 18.1725 14.3436 18.1725 14.674C18.0624 15.0044 18.0624 15.3348 18.0624 15.6653C18.0624 15.8855 18.1725 16.1058 18.2826 16.3261C18.7232 17.3173 19.384 18.3086 19.9347 19.2998C20.0448 19.4099 20.155 19.6302 20.155 19.7403C20.155 19.8505 20.155 19.8505 20.155 19.8505C19.8246 19.8505 19.4942 19.8505 19.1637 19.8505C19.1637 19.8505 19.0536 19.8505 19.0536 19.7403C18.8333 19.1897 18.5029 18.639 18.2826 18.0883C18.0624 17.7579 17.9522 17.4275 17.732 17.2072C17.5117 16.9869 17.2914 16.9869 17.1813 17.3173C17.0711 17.5376 17.0711 17.868 17.0711 18.0883C17.0711 18.639 17.0711 19.1897 17.1813 19.7403C17.1813 19.8505 17.1813 19.8505 17.0711 19.8505C16.8509 19.8505 16.6306 19.8505 16.4103 19.8505C16.4103 19.8505 16.3002 19.8505 16.3002 19.7403C16.19 19.1897 16.0799 18.5288 16.0799 17.9781C16.0799 17.5376 16.19 17.097 16.3002 16.6565C16.4103 16.3261 16.3002 15.9957 16.0799 15.7754C15.7495 15.445 15.4191 15.1146 15.0887 14.7842C14.9785 14.674 14.8684 14.5639 14.7582 14.5639V14.4537C14.7582 13.9031 14.8684 13.6828 14.9785 13.3524Z" fill="white"/>
<path d="M10.683 19.7402C10.7931 19.52 10.9032 19.1895 11.0134 18.9693C11.2336 18.4186 11.4539 17.7578 11.6742 17.0969C11.6742 16.8767 11.7843 16.6564 11.7843 16.4361C11.8945 16.1057 11.7843 15.7753 11.6742 15.555C11.4539 15.1145 11.3438 14.6739 11.1235 14.3435C10.9032 13.6827 10.683 13.0218 10.683 12.2509C10.683 12.1407 10.683 12.0306 10.683 11.8103C10.683 11.7002 10.683 11.7002 10.7931 11.8103C11.0134 11.9205 11.1235 12.0306 11.3438 12.0306C11.4539 12.0306 11.4539 12.1407 11.4539 12.1407C11.4539 12.5813 11.5641 13.0218 11.6742 13.3523C11.7843 13.6827 12.0046 13.9029 12.2249 14.1232C12.5553 14.3435 12.9958 14.3435 13.3263 14.1232C13.6567 13.9029 13.8769 13.5725 13.9871 13.2421C14.0972 12.9117 14.2074 12.4712 14.2074 12.0306C14.2074 11.9205 14.2074 11.9205 14.3175 11.9205C14.5378 11.8103 14.6479 11.8103 14.8682 11.7002C14.9783 11.7002 14.9783 11.7002 14.9783 11.7002C14.9783 12.0306 15.0885 12.2509 14.9783 12.5813C14.9783 12.6914 14.9783 12.8016 14.9783 12.9117C14.8682 13.4624 14.6479 13.9029 14.4276 14.4536C14.2074 14.784 14.0972 15.2246 13.9871 15.555C13.8769 15.8854 13.8769 16.1057 13.9871 16.4361C14.0972 16.7665 14.2074 17.0969 14.3175 17.4273C14.5378 18.0882 14.8682 18.749 15.0885 19.4098C15.0885 19.52 15.0885 19.52 15.0885 19.52C14.758 19.52 14.4276 19.52 14.2074 19.52C14.0972 19.52 14.0972 19.52 14.0972 19.4098C13.9871 18.9693 13.8769 18.4186 13.7668 17.978C13.6567 17.6476 13.5465 17.3172 13.4364 16.8767C13.4364 16.7665 13.3263 16.7665 13.3263 16.6564C13.2161 16.5462 13.106 16.5462 13.106 16.6564C12.9958 16.7665 12.9958 16.9868 12.8857 17.0969C12.7756 17.4273 12.6654 17.7578 12.5553 18.1983C12.4452 18.6389 12.335 18.9693 12.2249 19.4098C12.2249 19.4098 12.2249 19.52 12.1147 19.52C11.3438 19.7402 11.0134 19.7402 10.683 19.7402Z" fill="white"/>
<path d="M9.91216 13.0217C9.91216 13.4622 9.58175 13.7926 9.25134 13.9028C8.92092 13.9028 8.59051 13.7926 8.48037 13.4622C8.2601 13.0217 8.59051 12.3608 9.1412 12.3608C9.47161 12.3608 9.80202 12.471 9.91216 12.8014C9.91216 12.9115 9.91216 12.9115 9.91216 13.0217Z" fill="white"/>
<path d="M16.5204 13.9027C16.3001 13.9027 16.0798 13.7926 15.9697 13.5723C15.7494 13.352 15.7494 13.1318 15.7494 12.8014C15.8595 12.2507 16.3001 12.0304 16.7406 12.3608C17.071 12.5811 17.2913 13.1318 17.071 13.4622C17.071 13.7926 16.8508 13.9027 16.5204 13.9027Z" fill="white"/>
<path d="M13.5469 13.2423C13.5469 13.6828 13.2165 14.1234 12.6658 14.0132C12.3354 14.0132 12.1151 13.7929 12.005 13.4625C11.8948 13.1321 12.1151 12.5814 12.4455 12.4713C12.9962 12.3612 13.5469 12.6916 13.5469 13.2423Z" fill="white"/>
<path d="M13.877 13.3521C13.6567 13.0217 13.5465 12.6913 13.4364 12.3609V12.2508C13.6567 12.2508 13.877 12.1406 13.9871 12.1406C14.0972 12.1406 13.9871 12.1406 13.9871 12.2508C13.9871 12.471 13.9871 12.8014 13.877 13.0217C13.877 13.1319 13.877 13.242 13.877 13.3521Z" fill="white"/>
<path d="M11.7846 13.2418C11.6745 13.0216 11.6745 12.8013 11.5644 12.581C11.5644 12.4709 11.5644 12.3607 11.5644 12.2506C11.5644 12.2506 11.5644 12.1405 11.6745 12.2506C11.8948 12.2506 12.0049 12.3607 12.2252 12.3607C12.2252 12.3607 12.3353 12.3607 12.3353 12.4709C12.115 12.6912 12.0049 13.0216 11.7846 13.2418Z" fill="white"/>
</g>
<defs>
<clipPath id="clip0_465_828">
<rect width="25.5519" height="25.5519" fill="white" transform="translate(0 0.135742)"/>
</clipPath>
</defs>
</svg>
