<svg width="24" height="24" viewBox="0 0 24 24" fill="none" xmlns="http://www.w3.org/2000/svg">
<path d="M11.893 23.5123C18.0955 23.3573 22.998 18.2035 22.8431 12.001C22.6881 5.7985 17.5344 0.895993 11.3318 1.05096C5.12933 1.20592 0.226819 6.35968 0.381782 12.5622C0.536746 18.7647 5.6905 23.6672 11.893 23.5123Z" fill="white"/>
<path d="M11.6127 23.5154C17.8171 23.5154 22.8467 18.4858 22.8467 12.2814C22.8467 6.07701 17.8171 1.04736 11.6127 1.04736C5.40834 1.04736 0.378693 6.07701 0.378693 12.2814C0.378693 18.4858 5.40834 23.5154 11.6127 23.5154Z" fill="#12448D"/>
<path d="M6.32622 4.46143C6.5465 4.46143 6.76677 4.46143 6.98705 4.46143C7.4276 4.46143 7.97829 4.46143 8.41884 4.46143C9.41007 4.46143 10.2912 4.46143 11.2824 4.46143C11.8331 4.46143 12.4939 4.46143 13.0446 4.46143C13.2649 4.46143 13.4852 4.46143 13.8156 4.46143C14.0358 4.46143 14.2561 4.57156 14.4764 4.6817C14.6967 5.01211 15.0271 5.34253 15.3575 5.67294C15.798 6.11349 16.2386 6.55404 16.6791 6.99459C16.6791 6.99459 16.6791 6.99459 16.7893 7.10472C17.0096 7.325 17.1197 7.43514 17.0096 7.76555C17.0096 8.09596 17.0096 8.53651 17.0096 8.86692C17.0096 9.0872 17.1197 9.30747 17.34 9.41761C17.7805 9.63789 18.1109 10.0784 18.5515 10.4088C18.7718 10.6291 18.8819 10.8494 18.8819 11.0697C18.992 11.6204 18.992 12.171 18.992 12.7217C18.992 13.2724 18.992 13.8231 18.992 14.2637C18.992 15.0346 18.992 15.6954 18.992 16.4664C18.992 16.907 18.992 17.3475 18.992 17.7881C18.992 18.1185 18.8819 18.3387 18.7718 18.6692C18.6616 18.8894 18.5515 18.9996 18.3312 19.1097C17.8907 19.33 17.4501 19.33 17.0096 19.33C16.1285 19.33 15.2474 19.33 14.2561 19.33C12.6041 19.33 11.0621 19.33 9.41007 19.33C9.1898 19.33 8.96952 19.33 8.63911 19.33C7.97829 19.33 7.4276 19.33 6.76677 19.33C6.43636 19.33 6.10595 19.33 5.6654 19.33C5.44512 19.33 5.22485 19.2198 5.00457 19.1097C4.67416 18.8894 4.45389 18.559 4.34375 18.2286C4.34375 18.0083 4.34375 17.6779 4.34375 17.3475C4.34375 16.4664 4.34375 15.5853 4.34375 14.7042C4.34375 14.0434 4.34375 13.3826 4.34375 12.8319C4.34375 12.3913 4.34375 11.9508 4.34375 11.5102C4.34375 11.4001 4.34375 11.1798 4.34375 11.0697C4.34375 10.8494 4.45389 10.6291 4.67416 10.519C5.00458 10.2987 5.22485 9.9683 5.55526 9.74802C5.77554 9.52775 5.88567 9.41761 6.10595 9.19734C6.21609 9.0872 6.21609 8.97706 6.21609 8.75679C6.21609 7.76555 6.21609 6.88445 6.21609 5.89321C6.21609 5.45266 6.21609 5.01211 6.32622 4.46143C6.32622 4.57156 6.32622 4.57156 6.32622 4.46143ZM13.2649 12.0609C13.2649 12.2812 13.1547 12.3913 13.0446 12.5015C12.8243 12.7217 12.6041 12.8319 12.3838 12.942C11.723 13.1623 10.952 13.1623 10.181 12.942C9.52021 12.7217 9.07966 12.3913 8.74925 11.8406C8.41884 11.4001 8.3087 10.8494 8.3087 10.2987C8.3087 9.52775 8.41884 8.75679 8.85939 8.09596C9.29994 7.54527 9.85062 7.21486 10.4013 6.88445C10.8419 6.66417 11.2824 6.55404 11.8331 6.4439C12.2736 6.4439 12.7142 6.4439 13.0446 6.55404C13.2649 6.55404 13.375 6.66418 13.5953 6.66418C13.5953 6.22363 13.5953 5.78308 13.5953 5.23239C11.3925 5.23239 9.29994 5.12225 7.09719 5.23239V5.34253C7.09719 6.00335 7.09719 6.55404 7.09719 7.21486C7.09719 8.64665 7.09719 9.9683 7.09719 11.4001C7.09719 11.5102 7.09719 11.5102 7.20732 11.5102C7.64787 11.8406 8.19856 12.171 8.63911 12.6116C9.1898 13.0521 9.85062 13.4927 10.4013 13.9332H10.5114C10.6216 13.8231 10.7317 13.8231 10.7317 13.713C11.0621 13.4927 11.3925 13.2724 11.8331 13.2724C12.2736 13.2724 12.6041 13.3826 13.0446 13.6028C13.1547 13.713 13.2649 13.8231 13.4852 13.9332C13.5953 13.9332 13.5953 13.8231 13.7054 13.8231C14.5865 13.1623 15.3575 12.5015 16.2386 11.8406L16.3487 11.7305C16.3487 10.7393 16.3487 9.63789 16.3487 8.64665C16.3487 8.42637 16.3487 8.31624 16.3487 8.09596C15.9082 8.09596 15.3575 8.09596 14.9169 8.09596C15.0271 8.64665 15.0271 9.19734 14.8068 9.74802C14.6967 10.2987 14.3663 10.7393 13.9257 11.1798C13.5953 11.5102 13.2649 11.6204 12.8243 11.6204C12.6041 11.6204 12.4939 11.5102 12.2736 11.4001L12.1635 11.2899C11.9432 11.4001 11.6128 11.5102 11.3925 11.6204C11.0621 11.6204 10.7317 11.6204 10.4013 11.4001C10.0709 11.1798 9.85062 10.8494 9.85062 10.4088C9.85062 10.0784 9.96076 9.63789 10.0709 9.30747C10.4013 8.53651 11.0621 7.98582 11.9432 7.98582C12.3838 7.98582 12.7142 7.98582 13.1547 7.98582C13.2649 7.98582 13.4852 7.98582 13.5953 8.09596C13.5953 8.2061 13.5953 8.31624 13.5953 8.53651C13.4852 8.86692 13.375 9.30747 13.2649 9.63789C13.1547 9.9683 13.0446 10.2987 12.9345 10.6291C12.9345 10.7393 12.9345 10.8494 12.9345 10.9595C13.1547 10.9595 13.2649 10.8494 13.4852 10.7393C13.7054 10.6291 13.8156 10.4088 13.9257 10.1886C14.0358 9.85816 14.146 9.52775 14.2561 9.19734C14.3663 8.75679 14.2561 8.42637 13.9257 8.09596C13.8156 7.98582 13.8156 7.87569 13.7054 7.76555C13.5953 7.65541 13.5953 7.54527 13.375 7.43514C12.6041 7.10472 11.8331 7.10473 11.1723 7.54527C10.2912 7.98582 9.74049 8.75679 9.52021 9.74802C9.41007 10.0784 9.41007 10.519 9.52021 10.8494C9.63035 11.5102 10.0709 12.0609 10.6216 12.2812C11.0621 12.5015 11.6128 12.5015 12.0534 12.3913C12.2736 12.2812 12.6041 12.2812 12.8243 12.171C12.8243 12.0609 13.0446 11.9508 13.2649 12.0609ZM17.6704 18.6692C17.7805 18.6692 17.7805 18.6692 17.6704 18.6692C17.6704 18.559 17.6704 18.559 17.6704 18.6692C16.8994 18.0083 16.2386 17.4576 15.4676 16.907C14.5865 16.2461 13.7054 15.4752 12.8243 14.8143C12.6041 14.7042 12.4939 14.5941 12.2736 14.3738C12.0534 14.2637 11.723 14.1535 11.5027 14.3738C11.3925 14.4839 11.1723 14.4839 11.0621 14.5941C10.2912 15.1448 9.63035 15.6954 8.85939 16.2461C8.19856 16.7968 7.53774 17.2374 6.87691 17.7881C6.5465 18.0083 6.21609 18.3387 5.88567 18.559L5.77554 18.6692C9.85062 18.6692 13.8156 18.6692 17.6704 18.6692ZM9.63035 14.7042C9.52021 14.5941 9.41007 14.4839 9.29994 14.3738C9.1898 14.2637 8.96952 14.1535 8.85939 14.0434C8.52897 13.8231 8.3087 13.6028 7.97829 13.3826C7.31746 12.7217 6.5465 12.171 5.88567 11.6204C5.77554 11.5102 5.55526 11.4001 5.44512 11.2899C5.33499 11.2899 5.33499 11.1798 5.22485 11.1798C5.22485 13.3826 5.22485 15.6954 5.22485 18.0083C5.33499 17.8982 5.44512 17.8982 5.55526 17.7881C6.10595 17.3475 6.65664 16.907 7.20732 16.4664C7.86815 15.9157 8.63911 15.365 9.29994 14.8143C9.41007 14.8143 9.52021 14.7042 9.63035 14.7042ZM18.0008 11.4001C16.6791 12.5015 15.3575 13.4927 14.146 14.5941C15.4676 15.5853 16.6791 16.6867 18.0008 17.6779C18.0008 15.5853 18.0008 13.4927 18.0008 11.4001ZM10.6216 10.2987C10.6216 10.4088 10.6216 10.4088 10.6216 10.519C10.7317 10.7393 10.8419 10.8494 11.0621 10.8494C11.3925 10.8494 11.6128 10.8494 11.8331 10.519C11.9432 10.4088 11.9432 10.2987 12.0534 10.1886C12.2736 9.74802 12.3838 9.30747 12.4939 8.75679C12.4939 8.64665 12.4939 8.53651 12.3838 8.53651C12.2736 8.53651 12.0534 8.53651 11.9432 8.53651C11.6128 8.53651 11.3925 8.75679 11.1723 8.97706C10.8419 9.41761 10.6216 9.74802 10.6216 10.2987ZM14.3663 7.325C14.8068 7.325 15.2474 7.325 15.5778 7.325C15.1372 6.88445 14.6967 6.4439 14.3663 6.11349C14.3663 6.4439 14.3663 6.88445 14.3663 7.325ZM17.5602 10.6291C17.34 10.519 17.2298 10.4088 17.0096 10.1886C17.0096 10.519 17.0096 10.7393 17.0096 11.0697C17.2298 10.9595 17.4501 10.8494 17.5602 10.6291Z" fill="white"/>
</svg>
