<svg width="37" height="37" viewBox="0 0 37 37" fill="none" xmlns="http://www.w3.org/2000/svg">
<path d="M21.8823 30.0922C21.8823 28.2399 21.916 26.3876 21.8655 24.5353C21.8487 23.7944 22.0676 23.4408 22.859 23.5081C23.4989 23.5586 24.1556 23.5081 24.7955 23.525C25.267 23.5418 25.5196 23.3734 25.587 22.8682C25.7554 21.6221 25.9406 20.376 26.1595 19.1299C26.2605 18.5742 26.0753 18.4227 25.5533 18.4395C24.2567 18.4564 22.9769 18.4227 21.6803 18.4564C21.0741 18.4732 20.8046 18.2711 20.8383 17.6312C20.872 16.7556 20.8383 15.8968 20.8552 15.0212C20.872 13.2194 21.815 12.1922 23.6336 12.108C24.5261 12.0575 25.4354 12.0743 26.3279 12.0912C26.8499 12.108 27.1025 11.9564 27.0856 11.3839C27.052 10.3736 27.0688 9.36321 27.0688 8.35286C27.0688 8.01608 27.0351 7.71298 26.631 7.66246C24.5093 7.42671 22.3875 7.10677 20.2826 7.74665C17.7062 8.52126 16.0391 10.6093 15.8876 13.3204C15.8202 14.7181 15.8202 16.1326 15.8371 17.5302C15.8371 18.2038 15.6182 18.5069 14.9109 18.4564C14.1026 18.4058 13.2775 18.4732 12.4692 18.4395C11.8294 18.4058 11.6441 18.6753 11.661 19.2815C11.6946 20.4097 11.7115 21.5211 11.661 22.6493C11.6273 23.3734 11.9304 23.5755 12.604 23.5418C13.3617 23.4913 14.1195 23.5755 14.8772 23.525C15.6182 23.4744 15.8539 23.7775 15.8539 24.5016C15.8371 27.7853 15.8539 31.0689 15.8539 34.3525C15.8539 34.8914 15.8371 35.4134 15.8539 35.9523C15.8876 36.6932 15.5845 36.8447 14.8772 36.71C7.56904 35.2619 1.94476 29.7049 0.395555 22.3462C-1.67566 12.3774 4.58851 2.62755 14.4731 0.438453C24.9976 -1.90219 35.3032 5.38917 36.6503 16.0989C37.8122 25.4278 32.1374 34.0326 23.1284 36.5753C21.9329 36.9121 21.8823 36.8784 21.8823 35.666C21.8823 33.7969 21.8823 31.9445 21.8823 30.0922Z" fill="#12448D"/>
</svg>
